<?xml version="1.0" standalone="no"?>
<!DOCTYPE svg PUBLIC "-//W3C//DTD SVG 20010904//EN"
 "http://www.w3.org/TR/2001/REC-SVG-20010904/DTD/svg10.dtd">
<svg version="1.0" xmlns="http://www.w3.org/2000/svg"
 width="512.000000pt" height="512.000000pt" viewBox="0 0 512.000000 512.000000"
 preserveAspectRatio="xMidYMid meet">

<g transform="translate(0.000000,512.000000) scale(0.100000,-0.100000)"
fill="#000000" stroke="none">
<path id="interview" d="M270 4394 c-105 -28 -194 -105 -242 -210 l-23 -49 0 -850 0 -850 27
-57 c37 -79 98 -142 177 -181 65 -32 66 -32 238 -35 l173 -4 0 -226 c0 -210 2
-229 20 -260 21 -34 72 -62 112 -62 36 0 66 23 378 294 l295 256 208 0 207 0
0 -283 c0 -223 3 -295 15 -342 29 -110 104 -198 211 -247 46 -21 65 -23 276
-26 l228 -3 25 25 c32 32 32 70 0 101 -24 25 -25 25 -228 25 -205 0 -205 0
-258 28 -39 20 -62 41 -84 77 l-30 48 -3 299 -3 298 489 0 c540 0 547 1 639
63 57 40 116 114 140 177 15 40 18 97 21 503 l3 457 758 0 759 0 53 -28 c39
-20 62 -41 84 -77 l30 -48 3 -451 c3 -445 3 -451 24 -473 31 -33 80 -31 108 4
21 27 21 31 18 487 l-3 461 -27 58 c-37 79 -118 158 -193 188 l-60 24 -777 3
-776 2 -4 308 -3 307 -32 67 c-40 84 -97 141 -181 181 l-67 32 -987 0 c-1088
0 -1011 5 -1024 -62 -5 -26 -1 -37 19 -57 l26 -26 953 0 c646 0 965 -4 992
-11 58 -16 123 -81 141 -142 21 -71 22 -1591 1 -1650 -20 -54 -59 -101 -103
-123 -36 -18 -79 -19 -840 -24 l-801 -5 -34 -25 c-18 -13 -151 -127 -295 -252
-145 -125 -265 -228 -268 -228 -3 0 -5 93 -5 208 0 301 -1 302 -282 302 -154
0 -176 2 -215 21 -51 25 -96 76 -112 128 -8 27 -11 267 -11 834 l0 795 28 53
c20 39 41 62 77 84 l48 30 235 5 c217 5 235 6 248 24 23 33 18 82 -12 105 -25
20 -39 21 -238 20 -152 0 -226 -4 -266 -15z"/>
<path d="M1523 3960 c-123 -40 -223 -167 -239 -302 -6 -52 -4 -58 19 -82 16
-16 37 -26 55 -26 35 0 72 37 72 71 0 122 111 220 233 206 239 -29 240 -368 0
-407 -94 -16 -97 -23 -101 -207 -4 -171 -1 -194 28 -223 26 -26 60 -25 94 1
26 20 26 22 26 150 0 115 2 130 18 136 147 49 236 148 261 289 47 259 -211
477 -466 394z"/>
<path d="M3570 3030 c-43 -43 -14 -113 52 -125 18 -3 241 -5 494 -3 438 3 463
4 483 22 27 25 29 86 3 109 -17 15 -67 17 -515 17 -484 0 -498 -1 -517 -20z"/>
<path d="M1602 2813 c-21 -8 -43 -61 -36 -88 21 -83 144 -67 144 19 0 53 -57
90 -108 69z"/>
<path d="M3594 2486 c-48 -21 -60 -80 -24 -116 19 -19 33 -20 518 -20 471 0
500 1 515 18 24 27 22 85 -4 108 -20 18 -45 19 -498 21 -384 2 -482 0 -507
-11z"/>
<path d="M4995 2055 l-25 -24 0 -217 c0 -142 -4 -231 -12 -258 -16 -53 -84
-121 -134 -135 -22 -6 -115 -11 -209 -11 -151 0 -174 -2 -202 -20 -55 -33 -58
-46 -63 -279 l-5 -215 -120 105 c-298 260 -417 361 -451 384 l-37 25 -442 0
c-432 0 -443 0 -469 -21 -34 -27 -36 -77 -3 -107 23 -22 26 -22 448 -22 l426
0 304 -265 c205 -179 316 -268 341 -276 50 -16 104 4 135 50 22 33 23 42 23
262 l0 227 173 4 c162 3 175 5 229 30 79 37 142 98 181 177 l32 65 3 248 4
247 -26 26 c-32 32 -70 32 -101 0z"/>
<path d="M2373 1930 c-45 -18 -57 -81 -23 -118 l21 -22 1104 0 c1092 0 1105 0
1125 20 30 30 27 83 -6 109 -27 21 -29 21 -1113 20 -600 0 -1096 -4 -1108 -9z"/>
</g>
</svg>
