<?xml version="1.0" standalone="no"?>
<!DOCTYPE svg PUBLIC "-//W3C//DTD SVG 20010904//EN"
 "http://www.w3.org/TR/2001/REC-SVG-20010904/DTD/svg10.dtd">
<svg version="1.0" xmlns="http://www.w3.org/2000/svg"
 width="512.000000pt" height="512.000000pt" viewBox="0 0 512.000000 512.000000"
 preserveAspectRatio="xMidYMid meet">

<g transform="translate(0.000000,512.000000) scale(0.100000,-0.100000)"
fill="#000000" stroke="none">
<path id="success" d="M3024 4815 c-520 -138 -877 -645 -824 -1168 58 -571 492 -995 1047
-1024 579 -30 1082 378 1168 947 19 120 19 210 1 330 l-15 95 113 115 c63 63
121 131 131 150 23 44 31 148 16 202 -32 113 -145 198 -265 198 -79 0 -148
-32 -221 -101 l-55 -52 -60 57 c-113 104 -248 182 -408 236 -124 41 -181 47
-212 22 -28 -23 -33 -83 -9 -108 9 -8 59 -26 112 -39 54 -14 127 -38 164 -55
85 -39 217 -127 268 -179 l40 -41 -318 -318 -317 -317 -192 191 c-106 106
-212 203 -234 217 -145 90 -344 21 -404 -141 -24 -64 -25 -111 -4 -183 15 -51
33 -72 342 -382 190 -191 344 -337 367 -349 56 -29 149 -35 216 -13 50 16 80
44 425 387 371 369 371 370 378 338 18 -90 -4 -281 -45 -403 -72 -208 -230
-406 -412 -515 -149 -90 -337 -142 -509 -142 -492 1 -911 385 -957 876 -35
381 147 735 476 928 75 44 144 71 258 102 95 25 125 47 125 91 0 31 -42 73
-72 73 -13 -1 -64 -12 -114 -25z m1436 -321 c53 -32 77 -112 49 -167 -16 -31
-1038 -1055 -1071 -1073 -34 -18 -82 -18 -116 0 -43 23 -620 608 -632 641 -24
65 18 145 86 164 66 18 87 3 303 -212 113 -112 217 -212 231 -221 14 -9 45
-16 74 -16 l50 0 436 434 c239 238 446 441 460 450 31 21 94 21 130 0z"/>
<path d="M1845 2521 c-149 -27 -363 -84 -515 -136 -188 -65 -171 -65 -199 0
-14 32 -38 67 -55 80 -35 26 -104 46 -139 38 -12 -2 -206 -80 -431 -171 -448
-182 -473 -197 -495 -279 -8 -29 -11 -278 -9 -855 l3 -815 27 -35 c32 -42 103
-73 147 -65 40 8 1366 553 1418 583 76 44 104 151 63 241 l-19 43 43 19 c127
56 261 63 391 20 84 -28 126 -54 404 -243 147 -100 254 -166 268 -166 30 0 73
42 73 70 0 12 -5 30 -10 40 -15 29 -471 337 -580 392 -126 64 -199 82 -335 82
-98 0 -119 -3 -195 -31 -47 -16 -92 -33 -100 -37 -22 -9 -389 882 -369 895 28
17 293 101 426 134 194 49 338 69 450 62 149 -10 535 -92 619 -131 86 -41 631
-405 690 -461 79 -75 80 -171 4 -247 -62 -63 -70 -61 -435 117 -178 87 -330
155 -346 155 -33 0 -69 -40 -69 -77 0 -14 10 -33 23 -44 12 -11 166 -90 342
-177 l320 -157 80 0 c90 0 134 16 192 71 l34 32 583 41 c320 23 604 41 631 41
121 0 208 -98 191 -215 -9 -57 -68 -125 -133 -153 -49 -21 -1672 -352 -1726
-352 -39 0 -66 -16 -78 -47 -14 -37 5 -78 43 -94 40 -16 17 -20 976 172 879
176 874 174 971 271 73 73 95 125 95 228 1 71 -4 94 -25 140 -31 67 -76 120
-123 145 l-34 19 5 86 c11 161 -49 272 -181 340 -61 31 -77 35 -150 35 -54 0
-95 -6 -123 -17 -56 -23 -731 -424 -763 -453 -14 -13 -40 -25 -58 -27 l-33 -3
-3 62 c-5 77 -39 154 -95 209 -41 41 -587 414 -692 473 -84 47 -149 66 -397
117 -277 56 -432 66 -597 35z m-590 -824 c148 -359 270 -661 273 -673 2 -11
-2 -25 -10 -31 -9 -7 -1212 -504 -1355 -560 -18 -7 -19 1582 -1 1593 36 23
803 332 813 328 6 -3 132 -298 280 -657z m3433 262 c61 -30 102 -95 102 -163
0 -99 39 -88 -398 -118 -212 -15 -387 -26 -388 -25 -4 4 507 304 536 316 42
16 101 12 148 -10z"/>
</g>
</svg>
