<?xml version="1.0" standalone="no"?>
<!DOCTYPE svg PUBLIC "-//W3C//DTD SVG 20010904//EN"
 "http://www.w3.org/TR/2001/REC-SVG-20010904/DTD/svg10.dtd">
<svg version="1.0" xmlns="http://www.w3.org/2000/svg"
 width="512.000000pt" height="512.000000pt" viewBox="0 0 512.000000 512.000000"
 preserveAspectRatio="xMidYMid meet">

<g transform="translate(0.000000,512.000000) scale(0.100000,-0.100000)"
fill="orange" stroke="none">
<path d="M2329 5081 c-68 -22 -139 -69 -176 -118 -15 -20 -136 -223 -268 -452
l-240 -416 -340 -5 c-287 -5 -347 -8 -383 -22 -97 -39 -186 -122 -231 -217
l-26 -56 -3 -776 -2 -777 -168 -4 c-142 -4 -175 -8 -222 -26 -112 -45 -196
-129 -242 -242 l-23 -55 0 -795 0 -795 23 -55 c46 -113 129 -196 242 -242 l55
-23 1335 0 1335 0 55 23 c113 46 197 130 242 242 18 47 22 80 26 222 l4 167
672 3 671 3 67 32 c94 44 160 109 206 202 l37 75 5 323 5 323 45 22 c33 17 51
35 67 68 22 43 23 54 23 330 0 276 -1 287 -22 330 -17 34 -35 51 -70 69 l-48
23 0 280 0 280 34 40 c97 113 118 275 54 402 -34 67 -739 1287 -770 1334 -92
134 -298 189 -449 120 -30 -14 -152 -82 -272 -151 -120 -70 -223 -127 -229
-127 -6 0 -178 96 -382 214 -211 122 -394 221 -425 230 -70 21 -142 20 -212
-3z m170 -107 c35 -7 713 -396 713 -409 0 -5 -35 -29 -77 -53 l-77 -45 -52 26
c-28 14 -109 60 -181 102 -139 81 -154 84 -190 36 -78 -103 -187 -137 -294
-90 -48 20 -56 21 -78 8 -17 -9 -105 -152 -259 -419 l-233 -405 -108 -63 c-59
-35 -127 -75 -151 -88 l-44 -26 14 25 c7 13 177 309 378 657 240 417 379 648
406 676 60 60 145 85 233 68z m1625 -178 c25 -14 56 -41 69 -59 27 -35 724
-1241 765 -1321 29 -58 34 -155 9 -201 l-15 -29 -22 44 c-29 56 -114 142 -170
170 -66 34 -96 41 -195 48 l-90 7 40 40 c23 22 51 48 63 57 12 10 22 29 22 43
0 28 -367 674 -406 715 l-24 25 -63 -23 c-133 -48 -245 -20 -333 84 -26 30
-55 54 -66 54 -10 0 -408 -225 -885 -500 l-866 -500 -206 2 -206 3 185 106
c102 59 239 138 305 176 66 39 296 171 510 295 215 124 595 343 845 488 250
145 478 274 505 287 68 33 162 28 229 -11z m-1300 -338 c59 -33 103 -64 99
-68 -15 -13 -935 -541 -938 -538 -1 2 71 129 161 283 130 225 166 279 181 276
10 -2 59 -4 108 -5 79 -1 97 2 145 26 30 15 69 40 85 57 17 16 35 29 41 30 6
1 59 -27 118 -61z m1004 -256 c50 -24 70 -27 157 -27 55 0 111 3 125 7 24 6
32 -7 188 -278 l164 -285 -36 -40 c-20 -22 -46 -60 -58 -84 l-22 -45 -1070 0
c-588 0 -1066 4 -1060 8 5 5 191 114 414 242 582 335 705 406 890 513 l164 96
44 -41 c24 -22 69 -52 100 -66z m-2280 -273 c-13 -23 -79 -139 -148 -258
l-125 -216 -124 -3 c-166 -4 -215 11 -287 82 -113 114 -109 259 11 364 77 67
94 70 413 71 l283 1 -23 -41z m-628 -575 c44 -18 104 -19 1885 -24 l1840 -5
42 -23 c95 -50 159 -137 170 -230 l5 -49 -848 -6 c-1428 -12 -3021 -9 -3066 5
-22 6 -62 31 -88 55 -65 59 -80 105 -80 250 l0 113 48 -33 c26 -19 67 -42 92
-53z m5 -450 c57 -16 170 -17 1998 -11 l1937 6 0 -219 0 -220 -278 0 c-302 0
-351 -6 -444 -57 -67 -37 -143 -121 -181 -200 -29 -62 -32 -77 -32 -164 0 -90
2 -99 37 -170 60 -122 156 -201 283 -235 36 -10 129 -14 333 -14 l282 0 0
-195 0 -195 -618 0 c-341 0 -687 -3 -770 -7 l-151 -6 -3 349 c-3 335 -4 351
-26 404 -46 113 -129 196 -242 242 l-55 23 -1107 3 -1108 2 0 370 0 369 43
-28 c23 -16 69 -37 102 -47z m4063 -576 c19 -19 17 -561 -2 -577 -10 -9 -109
-11 -368 -9 -350 3 -353 3 -402 27 -137 67 -204 217 -161 356 29 91 117 176
215 206 44 13 704 11 718 -3z m-1956 -241 c64 -32 111 -80 142 -146 21 -46 21
-54 21 -821 0 -767 0 -775 -21 -821 -31 -66 -78 -114 -142 -146 l-57 -28
-1315 0 -1315 0 -46 21 c-66 31 -114 78 -146 142 l-28 57 -3 745 c-2 518 0
761 8 796 22 101 93 181 193 216 49 17 124 17 1352 15 l1300 -2 57 -28z m1826
-1035 c-10 -104 -71 -193 -168 -243 l-45 -24 -662 -3 -663 -3 0 160 0 160 103
4 c56 1 403 4 771 5 l669 2 -5 -58z"/>
<path  d="M2390 4780 c-24 -45 21 -92 66 -71 27 12 33 58 12 79 -20 20 -66 15
-78 -8z"/>
<path  d="M3943 4584 c-15 -24 -15 -29 -2 -53 11 -20 22 -26 49 -26 27 0 38 6
49 26 13 24 13 29 -2 53 -12 18 -26 26 -47 26 -21 0 -35 -8 -47 -26z"/>
<path  d="M4300 2198 c-132 -67 -132 -249 0 -315 24 -13 60 -23 80 -23 20 0 56
10 80 23 132 66 132 248 0 315 -24 12 -60 22 -80 22 -20 0 -56 -10 -80 -22z
m120 -118 c11 -11 20 -29 20 -40 0 -11 -9 -29 -20 -40 -11 -11 -29 -20 -40
-20 -11 0 -29 9 -40 20 -11 11 -20 29 -20 40 0 11 9 29 20 40 11 11 29 20 40
20 11 0 29 -9 40 -20z"/>
<path  d="M505 1821 c-91 -41 -105 -83 -105 -303 1 -221 16 -262 113 -303 57
-24 367 -21 422 4 90 41 105 83 105 301 0 218 -15 260 -105 301 -34 16 -66 19
-215 19 -149 0 -181 -3 -215 -19z m395 -121 c18 -18 20 -33 20 -180 0 -212 12
-200 -200 -200 -212 0 -200 -12 -200 200 0 212 -12 200 200 200 147 0 162 -2
180 -20z"/>
<path  d="M460 620 c-11 -11 -20 -29 -20 -40 0 -11 9 -29 20 -40 19 -19 33 -20
220 -20 187 0 201 1 220 20 11 11 20 29 20 40 0 11 -9 29 -20 40 -19 19 -33
20 -220 20 -187 0 -201 -1 -220 -20z"/>
<path  d="M1420 620 c-11 -11 -20 -29 -20 -40 0 -11 9 -29 20 -40 19 -19 33
-20 240 -20 207 0 221 1 240 20 11 11 20 29 20 40 0 11 -9 29 -20 40 -19 19
-33 20 -240 20 -207 0 -221 -1 -240 -20z"/>
<path d="M2420 620 c-11 -11 -20 -29 -20 -40 0 -11 9 -29 20 -40 19 -19 33
-20 220 -20 187 0 201 1 220 20 11 11 20 29 20 40 0 11 -9 29 -20 40 -19 19
-33 20 -220 20 -187 0 -201 -1 -220 -20z"/>
</g>
</svg>
